<svg width="10" height="18" viewBox="0 0 10 18" fill="none" xmlns="http://www.w3.org/2000/svg">
<path d="M0.284995 17.699C0.455221 17.8731 0.683135 17.9791 0.925979 17.9972C1.16882 18.0152 1.40991 17.944 1.604 17.797L1.69899 17.715L9.69899 9.89798C9.87118 9.72974 9.97689 9.50504 9.99673 9.26513C10.0166 9.02523 9.9492 8.78621 9.80699 8.59198L9.72699 8.49598L2.004 0.313979C1.82947 0.128878 1.59095 0.0172553 1.33701 0.00183905C1.08307 -0.0135772 0.832807 0.0683727 0.637168 0.231001C0.441529 0.39363 0.315228 0.62471 0.283984 0.87719C0.25274 1.12967 0.318903 1.38457 0.468997 1.58998L0.548995 1.68598L7.598 9.15498L0.300994 16.285C0.126863 16.4552 0.0208302 16.6831 0.00278759 16.926C-0.015255 17.1688 0.055932 17.4099 0.202994 17.604L0.284995 17.699Z" fill="#5F0080"/>
</svg>
