<svg width="58" height="59" viewBox="0 0 58 59" fill="none" xmlns="http://www.w3.org/2000/svg">
<g filter="url(#filter0_ddd_28_167)">
<path d="M29 4C15.1929 4 4 15.1929 4 29C4 42.8071 15.1929 54 29 54C42.8071 54 54 42.8071 54 29C54 15.1929 42.8071 4 29 4Z" fill="black"/>
</g>
<path d="M29 4C15.1929 4 4 15.1929 4 29C4 42.8071 15.1929 54 29 54C42.8071 54 54 42.8071 54 29C54 15.1929 42.8071 4 29 4Z" fill="white"/>
<path d="M31.715 20.301C31.5448 20.1269 31.3169 20.0209 31.074 20.0028C30.8312 19.9848 30.5901 20.056 30.396 20.203L30.301 20.285L22.301 28.102C22.1288 28.2703 22.0231 28.495 22.0033 28.7349C21.9834 28.9748 22.0508 29.2138 22.193 29.408L22.273 29.504L29.996 37.686C30.1705 37.8711 30.409 37.9827 30.663 37.9982C30.9169 38.0136 31.1672 37.9316 31.3628 37.769C31.5585 37.6064 31.6848 37.3753 31.716 37.1228C31.7473 36.8703 31.6811 36.6154 31.531 36.41L31.451 36.314L24.402 28.845L31.699 21.715C31.8731 21.5448 31.9792 21.3169 31.9972 21.074C32.0153 20.8312 31.9441 20.5901 31.797 20.396L31.715 20.301V20.301Z" fill="#333333"/>
<defs>
<filter id="filter0_ddd_28_167" x="0" y="0" width="58" height="59" filterUnits="userSpaceOnUse" color-interpolation-filters="sRGB">
<feFlood flood-opacity="0" result="BackgroundImageFix"/>
<feColorMatrix in="SourceAlpha" type="matrix" values="0 0 0 0 0 0 0 0 0 0 0 0 0 0 0 0 0 0 127 0" result="hardAlpha"/>
<feOffset/>
<feGaussianBlur stdDeviation="2"/>
<feColorMatrix type="matrix" values="0 0 0 0 0 0 0 0 0 0 0 0 0 0 0 0 0 0 0.08 0"/>
<feBlend mode="normal" in2="BackgroundImageFix" result="effect1_dropShadow_28_167"/>
<feColorMatrix in="SourceAlpha" type="matrix" values="0 0 0 0 0 0 0 0 0 0 0 0 0 0 0 0 0 0 127 0" result="hardAlpha"/>
<feOffset dy="1"/>
<feGaussianBlur stdDeviation="2"/>
<feColorMatrix type="matrix" values="0 0 0 0 0 0 0 0 0 0 0 0 0 0 0 0 0 0 0.03 0"/>
<feBlend mode="normal" in2="effect1_dropShadow_28_167" result="effect2_dropShadow_28_167"/>
<feColorMatrix in="SourceAlpha" type="matrix" values="0 0 0 0 0 0 0 0 0 0 0 0 0 0 0 0 0 0 127 0" result="hardAlpha"/>
<feOffset/>
<feGaussianBlur stdDeviation="2"/>
<feColorMatrix type="matrix" values="0 0 0 0 0 0 0 0 0 0 0 0 0 0 0 0 0 0 0.02 0"/>
<feBlend mode="normal" in2="effect2_dropShadow_28_167" result="effect3_dropShadow_28_167"/>
<feBlend mode="normal" in="SourceGraphic" in2="effect3_dropShadow_28_167" result="shape"/>
</filter>
</defs>
</svg>
