<svg width="28" height="24" viewBox="0 0 28 24" fill="none" xmlns="http://www.w3.org/2000/svg">
<path fill-rule="evenodd" clip-rule="evenodd" d="M24.9269 2.89295C24.3269 2.29261 23.6146 1.81636 22.8305 1.49144C22.0465 1.16651 21.2061 0.999268 20.3574 0.999268C19.5086 0.999268 18.6682 1.16651 17.8842 1.49144C17.1001 1.81636 16.3878 2.29261 15.7879 2.89295L13.9589 4.72095L12.1319 2.89295C10.9201 1.68091 9.27646 0.999887 7.56257 0.9997C5.84867 0.999512 4.2049 1.68017 2.99286 2.89195C1.78082 4.10372 1.0998 5.74735 1.09961 7.46124C1.09942 9.17514 1.78008 10.8189 2.99186 12.0309L4.81986 13.8599L13.2519 22.2939C13.4394 22.4814 13.6937 22.5867 13.9589 22.5867C14.224 22.5867 14.4783 22.4814 14.6659 22.2939L23.0989 13.8599L24.9269 12.0319C25.5271 11.432 26.0032 10.7198 26.328 9.9358C26.6528 9.15183 26.82 8.31155 26.82 7.46295C26.82 6.61435 26.6528 5.77407 26.328 4.9901C26.0032 4.20614 25.5271 3.49386 24.9269 2.89395V2.89295Z" stroke="#5F0080" stroke-width="1.7" stroke-linecap="round"/>
</svg>
